<svg id="Asterisms" xmlns="http://www.w3.org/2000/svg" width="288" height="288" viewBox="0 0 288 288">
  <g>
    <path d="M159.5,131.6c-.5-2.2-1-4.4-1.4-6.7s-1-4.5-1.6-6.7c-1.1-4.5-2.5-9-3.9-13.4a113,113,0,0,1-3.7-13.5c-.4-2.1-.7-4.2-.9-6.4,1.7,1.3,3.4,2.6,5,4,3.4,3,6.6,6.4,9.8,9.8s6.3,7,9.5,10.2l5.1,4.7,5,4.6a18.3,18.3,0,0,0,5.1,2.9A15.8,15.8,0,0,0,198,91.3l-6.5-2.1-6.5-2c-4.4-1.3-9-2.3-13.6-3.3A114.5,114.5,0,0,1,158,80.3l-6-2.4,6-2.5a138.3,138.3,0,0,1,13.4-3.6c4.6-1,9.1-2,13.6-3.3s8.7-2.7,13-4.1a16.9,16.9,0,0,0,5.5-3.2,15.8,15.8,0,1,0-21.1-23.6c-3.4,3-6.8,6-10,9.2s-6.5,6.7-9.6,10.2a100.7,100.7,0,0,1-9.8,9.8,62.5,62.5,0,0,1-5,4c.2-2.1.5-4.3.9-6.4A133,133,0,0,1,152.5,51c1.4-4.5,2.9-9,4-13.5s2-8.9,3-13.4a17.2,17.2,0,0,0,0-6.4A16,16,0,0,0,140.8,5.4a15.8,15.8,0,0,0-12.3,18.7c.9,4.5,1.8,8.9,2.9,13.4s2.6,9,4,13.5A133,133,0,0,1,139,64.4c.4,2.1.7,4.3.9,6.4a62.5,62.5,0,0,1-5-4,113.3,113.3,0,0,1-9.8-9.8q-4.6-5.2-9.6-10.2c-3.2-3.2-6.6-6.2-10-9.2a16.4,16.4,0,0,0-5.6-3.2,15.8,15.8,0,1,0-10,30c4.3,1.4,8.6,2.9,13,4.1s9,2.3,13.6,3.3a138.3,138.3,0,0,1,13.4,3.6l6,2.5-6,2.4a114.5,114.5,0,0,1-13.4,3.6c-4.6,1-9.2,2-13.6,3.3l-6.5,2-6.5,2.1a17.1,17.1,0,0,0-5,3,15.7,15.7,0,0,0-1.7,22.2,15.9,15.9,0,0,0,22.3,1.7l5.1-4.6,5-4.7c3.3-3.2,6.4-6.7,9.5-10.2s6.4-6.8,9.8-9.8c1.6-1.4,3.3-2.7,5-4-.2,2.2-.5,4.3-.9,6.4a134.8,134.8,0,0,1-3.6,13.5c-1.5,4.4-2.9,8.9-4,13.4-.6,2.2-1.1,4.5-1.6,6.7s-.9,4.5-1.3,6.7a14.2,14.2,0,0,0,0,5.8,15.8,15.8,0,0,0,31-5.8Z" fill="#4967a9"/>
    <path d="M92.3,205.9c4.6-1.1,9.1-2.2,13.6-3.5s8.7-2.9,13-4.4a15.3,15.3,0,0,0,5.5-3.2,15.8,15.8,0,0,0-21.3-23.4c-3.4,3.1-6.8,6.2-10.1,9.4s-6.4,6.8-9.5,10.3a102.3,102.3,0,0,1-9.7,10,46.1,46.1,0,0,1-5,4q.3-3.3.9-6.6a117.5,117.5,0,0,1,3.7-13.8c1.4-4.6,2.8-9.2,3.9-13.8s2.1-9.2,3-13.8a15.8,15.8,0,1,0-31,0c.9,4.6,1.8,9.2,2.9,13.8s2.6,9.2,4,13.8a116.9,116.9,0,0,1,3.6,13.8q.6,3.3.9,6.6a45.2,45.2,0,0,1-4.9-4,102.3,102.3,0,0,1-9.7-10c-3.2-3.5-6.3-7-9.6-10.3s-6.6-6.3-10-9.4a15.5,15.5,0,0,0-5.4-3.2A15.8,15.8,0,1,0,10.6,198c4.3,1.5,8.6,3.1,13.1,4.4s9,2.4,13.6,3.5a120.8,120.8,0,0,1,13.4,3.8c2.1.8,4.2,1.6,6.2,2.6-2,1-4.1,1.8-6.2,2.6a120.8,120.8,0,0,1-13.4,3.8c-4.6,1.1-9.2,2.2-13.6,3.5-2.3.6-4.4,1.4-6.6,2.1l-6.5,2.3a15.9,15.9,0,0,0-5,2.9,15.8,15.8,0,0,0,20.9,23.7l5.1-4.6,5-4.8c3.2-3.3,6.3-6.8,9.5-10.3a114.9,114.9,0,0,1,9.7-10,45.2,45.2,0,0,1,4.9-4q-.3,3.3-.9,6.6a140.2,140.2,0,0,1-3.6,13.8c-1.4,4.6-2.9,9.2-4,13.8q-.9,3.4-1.5,6.9c-.5,2.3-1,4.6-1.4,6.9a15.1,15.1,0,0,0,0,5.6,15.8,15.8,0,0,0,31-5.6c-.4-2.3-.9-4.6-1.4-6.9l-1.5-6.9c-1.2-4.6-2.6-9.2-4-13.8a116.9,116.9,0,0,1-3.6-13.8,50.1,50.1,0,0,1-1-6.6,46.1,46.1,0,0,1,5,4,114.9,114.9,0,0,1,9.7,10c3.1,3.5,6.2,7,9.5,10.3l5,4.8c1.7,1.5,3.3,3.1,5.1,4.6a17.4,17.4,0,0,0,4.9,3,15.8,15.8,0,1,0,10.9-29.6l-6.4-2.3-6.6-2.1c-4.4-1.3-9-2.4-13.6-3.5a115,115,0,0,1-13.4-3.8c-2.2-.8-4.2-1.6-6.3-2.6,2.1-1,4.1-1.8,6.3-2.6A115,115,0,0,1,92.3,205.9Z" fill="#4967a9"/>
    <path d="M277.2,225.8l-6.5-2.2-6.5-2c-4.5-1.3-9-2.3-13.6-3.3a114.5,114.5,0,0,1-13.4-3.6,62.5,62.5,0,0,1-6-2.4,62.5,62.5,0,0,1,6-2.4,114.5,114.5,0,0,1,13.4-3.6c4.5-1.1,9.1-2,13.5-3.3s8.8-2.7,13.1-4.2a14.7,14.7,0,0,0,5.5-3.2A15.8,15.8,0,1,0,261.6,172c-3.4,3-6.8,6.1-10.1,9.3s-6.4,6.7-9.5,10.1a131,131,0,0,1-9.8,9.9,61.2,61.2,0,0,1-5,3.9q.3-3.1.9-6.3a134.8,134.8,0,0,1,3.6-13.5c1.4-4.5,2.8-8.9,4-13.4s2-9,2.9-13.5a14.9,14.9,0,0,0,0-6.3,15.8,15.8,0,0,0-31,6.3c.9,4.5,1.8,9,3,13.5s2.6,8.9,3.9,13.4a113,113,0,0,1,3.7,13.5q.6,3.2.9,6.3a47.8,47.8,0,0,1-5-3.9,101.8,101.8,0,0,1-9.8-9.9c-3.2-3.4-6.3-6.9-9.6-10.1S188,175,184.6,172a15,15,0,0,0-5.5-3.2,15.8,15.8,0,0,0-10,30c4.3,1.5,8.6,2.9,13,4.2s9,2.2,13.6,3.3a120.1,120.1,0,0,1,13.4,3.6q3,1,6,2.4l-6,2.4a120.1,120.1,0,0,1-13.4,3.6c-4.6,1-9.2,2-13.6,3.3l-6.6,2-6.4,2.2a15.3,15.3,0,0,0-5.1,2.9,15.8,15.8,0,0,0,20.6,23.9c1.8-1.5,3.4-3,5.1-4.6s3.4-3,5-4.7c3.3-3.2,6.5-6.7,9.6-10.1a114.6,114.6,0,0,1,9.8-9.9,47.8,47.8,0,0,1,5-3.9q-.3,3.2-.9,6.3a135.5,135.5,0,0,1-3.7,13.5c-1.4,4.5-2.8,9-4,13.4l-1.5,6.8c-.5,2.2-1,4.4-1.4,6.7a18.8,18.8,0,0,0,0,5.8,15.8,15.8,0,0,0,31-5.8c-.4-2.3-.9-4.5-1.3-6.7s-1-4.5-1.6-6.8c-1.1-4.4-2.6-8.9-4-13.4a134.8,134.8,0,0,1-3.6-13.5q-.6-3.1-.9-6.3a61.2,61.2,0,0,1,5,3.9,113.6,113.6,0,0,1,9.7,9.9c3.2,3.4,6.3,6.9,9.6,10.1,1.7,1.7,3.3,3.2,5,4.7l5.1,4.6a19.2,19.2,0,0,0,5,2.9,15.8,15.8,0,1,0,10.6-29.7Z" fill="#4967a9"/>
  </g>
</svg>
